<mxfile host="app.diagrams.net" modified="2023-10-27T19:08:30.687Z" agent="Mozilla/5.0 (Macintosh; Intel Mac OS X 10_15_7) AppleWebKit/537.36 (KHTML, like Gecko) Chrome/118.0.0.0 Safari/537.36" etag="cKyekigoFITNPPiJAy4X" version="22.0.8" type="device">
  <diagram name="PÃ¡gina-1" id="vcSEkRKi2aXuCcXgvrSx">
    <mxGraphModel dx="2059" dy="1086" grid="1" gridSize="10" guides="1" tooltips="1" connect="1" arrows="1" fold="1" page="1" pageScale="1" pageWidth="1169" pageHeight="827" math="0" shadow="0">
      <root>
        <mxCell id="0" />
        <mxCell id="1" parent="0" />
        <mxCell id="qCYq45040Dhx_-SQNfYF-1" value="" style="verticalLabelPosition=bottom;html=1;verticalAlign=top;align=center;strokeColor=none;fillColor=#00BEF2;shape=mxgraph.azure.mysql_database;" vertex="1" parent="1">
          <mxGeometry x="920" y="340" width="82.5" height="110" as="geometry" />
        </mxCell>
        <mxCell id="qCYq45040Dhx_-SQNfYF-2" value="transactional-api" style="rounded=1;whiteSpace=wrap;html=1;" vertex="1" parent="1">
          <mxGeometry x="520" y="357.5" width="160" height="75" as="geometry" />
        </mxCell>
        <mxCell id="qCYq45040Dhx_-SQNfYF-3" style="edgeStyle=orthogonalEdgeStyle;rounded=0;orthogonalLoop=1;jettySize=auto;html=1;entryX=0;entryY=0.5;entryDx=0;entryDy=0;entryPerimeter=0;" edge="1" parent="1" source="qCYq45040Dhx_-SQNfYF-2" target="qCYq45040Dhx_-SQNfYF-1">
          <mxGeometry relative="1" as="geometry" />
        </mxCell>
        <mxCell id="qCYq45040Dhx_-SQNfYF-5" style="edgeStyle=orthogonalEdgeStyle;rounded=0;orthogonalLoop=1;jettySize=auto;html=1;entryX=0;entryY=0.5;entryDx=0;entryDy=0;" edge="1" parent="1" source="qCYq45040Dhx_-SQNfYF-4" target="qCYq45040Dhx_-SQNfYF-2">
          <mxGeometry relative="1" as="geometry" />
        </mxCell>
        <mxCell id="qCYq45040Dhx_-SQNfYF-4" value="" style="sketch=0;outlineConnect=0;fontColor=#232F3E;gradientColor=none;fillColor=#232F3D;strokeColor=none;dashed=0;verticalLabelPosition=bottom;verticalAlign=top;align=center;html=1;fontSize=12;fontStyle=0;aspect=fixed;pointerEvents=1;shape=mxgraph.aws4.client;" vertex="1" parent="1">
          <mxGeometry x="160" y="356.5" width="78" height="76" as="geometry" />
        </mxCell>
      </root>
    </mxGraphModel>
  </diagram>
</mxfile>
